<?xml version="1.0" standalone="no"?>
<!DOCTYPE svg PUBLIC "-//W3C//DTD SVG 20010904//EN"
 "http://www.w3.org/TR/2001/REC-SVG-20010904/DTD/svg10.dtd">
<svg version="1.0" xmlns="http://www.w3.org/2000/svg"
 width="89" height="45" viewBox="0 0 482.000000 110.000000"
 preserveAspectRatio="xMidYMid meet">

<g transform="translate(0.000000,110.000000) scale(0.100000,-0.100000)"
fill="#000000" stroke="none">
<path d="M0 550 l0 -550 2410 0 2410 0 0 550 0 550 -1203 0 -1204 0 1 -22 c1
-17 -5 -24 -21 -26 -22 -3 -28 6 -24 36 2 9 -241 12 -1184 12 l-1185 0 0 -550z
m2318 457 c4 -20 -25 -34 -40 -19 -15 15 -1 44 19 40 10 -2 19 -11 21 -21z
m82 -32 c0 -30 -4 -55 -10 -55 -5 0 -10 25 -10 55 0 30 5 55 10 55 6 0 10 -25
10 -55z m110 30 c0 -18 -5 -25 -19 -25 -11 0 -23 5 -26 10 -11 18 3 40 25 40
15 0 20 -7 20 -25z m-1516 -1 c9 -3 16 -17 16 -30 0 -22 -4 -24 -51 -24 -59 0
-57 -11 6 -39 47 -21 63 -50 51 -96 -8 -30 -39 -40 -114 -39 -59 2 -77 12 -68
41 5 15 14 18 47 15 62 -6 70 12 15 37 -31 13 -49 29 -57 48 -14 36 -4 72 24
83 26 10 108 13 131 4z m240 0 c9 -3 16 -17 16 -30 0 -22 -4 -24 -51 -24 -59
0 -57 -11 6 -39 31 -14 46 -27 51 -45 10 -42 -3 -75 -34 -83 -31 -9 -140 -9
-148 0 -4 3 -4 17 0 30 5 22 10 24 50 20 61 -7 67 11 11 36 -26 11 -50 30 -56
45 -15 33 -4 75 24 86 26 10 108 13 131 4z m164 -111 l3 -113 -41 0 -40 0 0
108 c0 60 3 112 7 116 4 4 21 6 38 4 l30 -3 3 -112z m158 109 c6 -4 22 -38 35
-77 l24 -70 3 73 3 72 34 0 35 0 0 -110 0 -110 -50 0 c-27 0 -50 1 -50 3 0 1
-11 34 -25 72 l-25 70 0 -72 0 -73 -35 0 -35 0 0 108 c0 60 3 112 7 115 9 9
65 9 79 -1z m330 -15 c2 -13 -7 -22 -27 -29 -29 -10 -30 -12 -27 -67 3 -49 6
-56 26 -59 16 -3 22 -10 22 -28 0 -21 -4 -24 -40 -24 -67 0 -101 58 -87 147 8
45 24 63 68 73 47 11 62 8 65 -13z m1312 -95 l3 -113 -38 3 -38 3 -2 105 c-2
112 2 122 47 118 25 -3 25 -4 28 -116z m230 109 c8 -4 12 -19 10 -32 -3 -21
-7 -24 -42 -21 -45 4 -56 -7 -56 -60 0 -44 25 -63 71 -53 27 6 29 5 29 -24 0
-26 -4 -31 -35 -37 -48 -9 -116 15 -132 46 -16 32 -16 108 0 140 7 13 24 30
37 37 28 14 98 17 118 4z m150 -38 c3 -34 7 -43 22 -43 15 0 19 9 22 43 3 41
4 42 41 45 l37 3 0 -115 0 -116 -40 0 -40 0 0 45 c0 38 -3 45 -20 45 -17 0
-20 -7 -20 -45 l0 -45 -40 0 -40 0 0 108 c0 60 3 112 7 116 4 4 21 6 38 4 28
-3 30 -6 33 -45z m366 24 c30 -30 41 -92 26 -147 -14 -52 -59 -75 -126 -65
-63 9 -79 33 -79 117 0 64 2 72 28 94 39 34 118 34 151 1z m164 -64 l3 -83 39
0 c38 0 40 -2 40 -30 l0 -30 -75 0 -75 0 0 108 c0 60 3 112 7 116 4 4 19 6 33
4 24 -3 25 -6 28 -85z m278 79 c7 -4 21 -41 33 -82 11 -41 25 -90 30 -107 l10
-33 -40 0 c-33 0 -40 4 -45 25 -9 34 -61 36 -66 3 -2 -19 -10 -24 -45 -26
l-41 -3 30 103 c16 57 35 109 40 116 11 13 76 16 94 4z m292 -7 c2 -2 1 -13
-3 -24 -5 -18 -13 -21 -47 -19 -56 4 -60 -17 -8 -38 44 -18 60 -38 60 -78 0
-43 -24 -56 -106 -56 -72 0 -75 1 -72 23 3 19 10 22 56 25 28 2 52 7 52 13 0
5 -20 18 -45 29 -53 23 -73 57 -59 97 5 16 20 30 34 34 22 7 130 2 138 -6z
m-4364 -11 c23 -22 20 -60 -6 -78 -12 -9 -17 -16 -11 -16 19 0 43 -30 43 -54
0 -28 -32 -59 -57 -54 -16 3 -18 15 -19 111 -1 96 1 107 17 107 10 0 25 -7 33
-16z m168 -66 l3 -83 35 0 c31 0 35 -3 38 -27 l3 -28 -75 0 -76 0 0 110 0 110
35 0 34 0 3 -82z m298 57 c0 -23 -4 -25 -45 -25 -38 0 -45 -3 -45 -20 0 -16 7
-20 35 -20 24 0 35 -5 35 -15 0 -10 -11 -15 -35 -15 -28 0 -35 -4 -35 -19 0
-16 8 -20 43 -23 38 -3 42 -6 45 -30 l3 -28 -80 0 -81 0 0 110 0 110 80 0 c79
0 80 0 80 -25z m2171 -45 c13 -38 27 -70 31 -70 4 0 8 32 8 70 l0 70 30 0 30
0 0 -111 0 -110 -47 3 -48 3 -25 75 -25 75 -3 -78 c-2 -56 -6 -77 -15 -74 -7
2 -11 14 -11 25 1 12 -4 22 -10 22 -6 0 -4 5 4 10 13 9 13 10 0 10 -13 0 -13
1 0 10 13 9 13 10 0 10 -13 0 -13 1 0 10 13 9 13 10 0 10 -13 0 -13 1 0 10 8
5 10 10 4 10 -6 0 -11 7 -11 15 0 8 5 15 11 15 7 0 7 3 1 8 -5 4 -11 17 -11
30 -1 19 4 22 32 22 32 0 33 -2 55 -70z m-724 14 c8 -22 -15 -44 -26 -25 -10
16 -4 41 10 41 5 0 12 -7 16 -16z m91 -17 c12 -3 10 -5 -5 -6 -18 -1 -23 4
-22 22 1 15 3 17 6 5 2 -9 12 -19 21 -21z m172 13 c0 -14 -6 -20 -22 -19 -17
1 -19 2 -5 6 9 2 17 11 17 19 0 8 2 14 5 14 3 0 5 -9 5 -20z m97 4 c8 -21 -13
-42 -28 -27 -13 13 -5 43 11 43 6 0 13 -7 17 -16z m-707 -54 c0 -11 -4 -20
-10 -20 -5 0 -10 9 -10 20 0 11 5 20 10 20 6 0 10 -9 10 -20z m638 -36 l3 -51
-67 -6 c-36 -2 -93 -2 -125 0 l-59 6 0 54 0 54 123 -3 122 -3 3 -51z m59 -11
c-3 -10 -5 -2 -5 17 0 19 2 27 5 18 2 -10 2 -26 0 -35z m-59 -75 c-3 -9 -40
-14 -126 -16 -104 -2 -122 0 -122 13 0 13 20 15 126 15 96 0 125 -3 122 -12z
m-108 -42 c0 -8 12 -17 28 -19 15 -2 -7 -4 -48 -4 -41 0 -63 2 -47 4 15 2 27
11 27 19 0 8 9 14 20 14 11 0 20 -6 20 -14z m124 -458 c-8 -28 -12 -33 -20
-25 -9 8 6 47 17 47 6 0 7 -10 3 -22z m-6 -104 c-1 -45 -11 -63 -23 -44 -9 15
6 101 16 94 5 -3 8 -25 7 -50z m-301 29 c3 -7 -10 -21 -28 -32 -28 -17 -30
-21 -16 -27 11 -4 26 1 37 11 11 10 23 16 26 13 9 -10 -47 -47 -62 -41 -24 9
-29 51 -8 74 19 21 45 22 51 2z m235 -45 c-4 -96 -28 -128 -72 -97 -12 8 -10
9 7 4 26 -7 37 10 47 70 l7 40 -19 -24 c-11 -13 -24 -21 -31 -17 -29 19 6 89
42 84 20 -3 22 -8 19 -60z m295 45 c3 -7 -10 -21 -28 -32 -28 -17 -30 -21 -16
-27 11 -4 26 1 37 11 11 10 23 16 26 13 9 -10 -47 -47 -62 -41 -24 9 -29 51
-8 74 19 21 45 22 51 2z m101 4 c9 -10 4 -17 -18 -31 -17 -9 -30 -21 -30 -27
0 -15 32 -10 53 8 19 18 19 17 6 -5 -19 -31 -63 -27 -67 6 -3 22 22 62 38 62
4 0 12 -6 18 -13z m-928 -59 c0 -70 -7 -76 -10 -8 -3 53 -2 70 5 70 3 0 5 -28
5 -62z m119 45 c-1 -10 -5 -31 -9 -48 -7 -28 -8 -28 -9 -5 -1 22 -3 23 -12 8
-12 -22 -38 -23 -45 -3 -10 24 23 65 51 65 18 0 25 -5 24 -17z m251 5 c0 -9 3
-9 12 0 7 7 20 12 30 12 14 0 18 -8 18 -41 0 -48 -20 -44 -21 4 l-1 32 -16
-37 c-23 -50 -42 -49 -42 2 0 22 5 40 10 40 6 0 10 -5 10 -12z m355 -7 c3 -10
1 -29 -4 -42 -9 -22 -10 -20 -10 15 -1 32 -3 37 -15 27 -8 -7 -18 -26 -21 -42
-9 -40 -25 -27 -25 20 0 36 1 38 34 39 26 1 36 -4 41 -17z m283 11 c14 12 14
10 0 -17 -8 -16 -18 -37 -21 -45 -3 -8 -5 5 -5 30 0 25 2 39 5 32 4 -10 8 -10
21 0z"/>
<path d="M3846 934 c-16 -42 -1 -104 26 -104 15 0 29 52 22 86 -7 37 -37 48
-48 18z"/>
<path d="M4336 939 c-17 -55 -16 -69 4 -69 19 0 20 4 14 38 -8 43 -12 50 -18
31z"/>
<path d="M2185 180 c-3 -6 1 -7 9 -4 18 7 21 14 7 14 -6 0 -13 -4 -16 -10z"/>
<path d="M2420 175 c-7 -9 -11 -17 -9 -20 3 -2 10 5 17 15 14 24 10 26 -8 5z"/>
<path d="M2715 180 c-3 -6 1 -7 9 -4 18 7 21 14 7 14 -6 0 -13 -4 -16 -10z"/>
<path d="M2829 183 c-13 -16 -12 -17 4 -4 16 13 21 21 13 21 -2 0 -10 -8 -17
-17z"/>
<path d="M1997 172 c-18 -20 -22 -42 -8 -42 8 0 41 43 41 55 0 11 -18 4 -33
-13z"/>
</g>
</svg>
